<svg width="45" height="36" viewBox="0 0 45 36" fill="none" xmlns="http://www.w3.org/2000/svg">
<path d="M42 4.5H37.5V1.5C37.5 1.10218 37.342 0.720645 37.0607 0.43934C36.7794 0.158036 36.3978 0 36 0H9C8.60218 0 8.22064 0.158036 7.93934 0.43934C7.65804 0.720645 7.5 1.10218 7.5 1.5V4.5H3C2.20435 4.5 1.44129 4.81607 0.87868 5.37868C0.316071 5.94129 0 6.70435 0 7.5V10.5C0 12.4891 0.790176 14.3968 2.1967 15.8033C2.89314 16.4997 3.71993 17.0522 4.62987 17.4291C5.53982 17.806 6.51509 18 7.5 18H8.18438C9.06796 20.8002 10.7527 23.28 13.0303 25.1331C15.308 26.9862 18.0787 28.1313 21 28.4269V33H16.5C16.1022 33 15.7206 33.158 15.4393 33.4393C15.158 33.7206 15 34.1022 15 34.5C15 34.8978 15.158 35.2794 15.4393 35.5607C15.7206 35.842 16.1022 36 16.5 36H28.5C28.8978 36 29.2794 35.842 29.5607 35.5607C29.842 35.2794 30 34.8978 30 34.5C30 34.1022 29.842 33.7206 29.5607 33.4393C29.2794 33.158 28.8978 33 28.5 33H24V28.4212C29.9888 27.8156 34.9575 23.6138 36.765 18H37.5C39.4891 18 41.3968 17.2098 42.8033 15.8033C44.2098 14.3968 45 12.4891 45 10.5V7.5C45 6.70435 44.6839 5.94129 44.1213 5.37868C43.5587 4.81607 42.7957 4.5 42 4.5ZM7.5 15C6.30653 15 5.16193 14.5259 4.31802 13.682C3.47411 12.8381 3 11.6935 3 10.5V7.5H7.5V13.5C7.5 14 7.52437 14.5 7.57312 15H7.5ZM34.5 13.3312C34.5 19.9912 29.0625 25.4513 22.5 25.5C19.3174 25.5 16.2652 24.2357 14.0147 21.9853C11.7643 19.7348 10.5 16.6826 10.5 13.5V3H34.5V13.3312ZM42 10.5C42 11.6935 41.5259 12.8381 40.682 13.682C39.8381 14.5259 38.6935 15 37.5 15H37.4062C37.4678 14.4459 37.4991 13.8888 37.5 13.3312V7.5H42V10.5Z" fill="white"/>
</svg>
