<svg width="40" height="40" viewBox="0 0 40 40" fill="none" xmlns="http://www.w3.org/2000/svg">
<path d="M37.1282 11.0991C39.2097 15.4525 39.6048 20.4226 38.2374 25.0502C36.8699 29.6778 33.8367 33.6348 29.7233 36.1575C25.6099 38.6803 20.7078 39.5899 15.9631 38.7109C11.2185 37.8319 6.9676 35.2265 4.03091 31.3976C1.09423 27.5687 -0.320062 22.7878 0.0609863 17.9774C0.442035 13.1671 2.59142 8.66839 6.0943 5.34961C9.59718 2.03082 14.2052 0.127201 19.0291 0.0061484C23.853 -0.114904 28.5508 1.55519 32.2157 4.69411L36.4663 0.441606C36.7478 0.160145 37.1295 0.00202173 37.5276 0.00202173C37.9256 0.00202173 38.3074 0.160145 38.5888 0.441606C38.8703 0.723067 39.0284 1.10481 39.0284 1.50286C39.0284 1.9009 38.8703 2.28264 38.5888 2.56411L20.5888 20.5641C20.3074 20.8456 19.9256 21.0037 19.5276 21.0037C19.1295 21.0037 18.7478 20.8456 18.4663 20.5641C18.1849 20.2826 18.0267 19.9009 18.0267 19.5029C18.0267 19.1048 18.1849 18.7231 18.4663 18.4416L23.6638 13.2441C22.2552 12.3125 20.5735 11.8836 18.8908 12.0268C17.2081 12.1699 15.6229 12.8768 14.392 14.033C13.161 15.1891 12.3563 16.7269 12.108 18.3973C11.8598 20.0678 12.1826 21.7731 13.0242 23.2372C13.8657 24.7014 15.1768 25.8386 16.7452 26.4649C18.3135 27.0912 20.0473 27.1699 21.666 26.6882C23.2846 26.2064 24.6932 25.1925 25.6639 23.8106C26.6346 22.4286 27.1104 20.7595 27.0144 19.0735C27.0034 18.8765 27.0312 18.6793 27.0963 18.493C27.1615 18.3068 27.2627 18.1352 27.3941 17.9881C27.5256 17.841 27.6847 17.7212 27.8625 17.6356C28.0402 17.55 28.2331 17.5002 28.4301 17.4891C28.8279 17.4667 29.2183 17.6033 29.5154 17.8688C29.6626 18.0002 29.7824 18.1594 29.868 18.3371C29.9536 18.5149 30.0034 18.7077 30.0144 18.9047C30.1512 21.2912 29.4696 23.6529 28.0822 25.5995C26.6949 27.546 24.6849 28.961 22.3844 29.6104C20.084 30.2599 17.6308 30.105 15.4303 29.1713C13.2298 28.2376 11.4138 26.581 10.2823 24.4754C9.1509 22.3697 8.7718 19.9411 9.20767 17.5908C9.64355 15.2405 10.8683 13.1093 12.6796 11.5493C14.4908 9.98944 16.7801 9.09423 19.169 9.01169C21.558 8.92914 23.9036 9.66419 25.8182 11.0954L30.0838 6.82973C26.9578 4.23435 22.9831 2.88541 18.9232 3.042C14.8632 3.19859 11.0042 4.84966 8.08741 7.6781C5.1706 10.5065 3.40164 14.3129 3.12027 18.3662C2.8389 22.4194 4.06496 26.4337 6.56298 29.638C9.061 32.8423 12.6548 35.0108 16.6542 35.7268C20.6536 36.4429 24.7766 35.6561 28.2312 33.5175C31.6858 31.379 34.2285 28.0394 35.3709 24.1404C36.5134 20.2413 36.1749 16.0576 34.4207 12.3929C34.2491 12.0338 34.2272 11.6213 34.3598 11.2461C34.4923 10.871 34.7685 10.5638 35.1276 10.3922C35.4866 10.2207 35.8991 10.1988 36.2743 10.3313C36.6495 10.4639 36.9566 10.7401 37.1282 11.0991Z" fill="white"/>
</svg>
