<svg width="27" height="27" viewBox="0 0 27 27" fill="none" xmlns="http://www.w3.org/2000/svg">
<path d="M27.0008 1.5V21C27.0008 21.3978 26.8428 21.7794 26.5615 22.0607C26.2802 22.342 25.8987 22.5 25.5008 22.5C25.103 22.5 24.7215 22.342 24.4402 22.0607C24.1589 21.7794 24.0008 21.3978 24.0008 21V5.12063L2.56208 26.5613C2.28062 26.8427 1.89888 27.0008 1.50083 27.0008C1.10279 27.0008 0.721045 26.8427 0.439584 26.5613C0.158123 26.2798 0 25.898 0 25.5C0 25.102 0.158123 24.7202 0.439584 24.4388L21.8802 3H6.00083C5.60301 3 5.22148 2.84196 4.94017 2.56066C4.65887 2.27936 4.50083 1.89782 4.50083 1.5C4.50083 1.10218 4.65887 0.720645 4.94017 0.43934C5.22148 0.158036 5.60301 0 6.00083 0H25.5008C25.8987 0 26.2802 0.158036 26.5615 0.43934C26.8428 0.720645 27.0008 1.10218 27.0008 1.5Z" fill="white"/>
</svg>
