<svg width="45" height="30" viewBox="0 0 45 30" fill="none" xmlns="http://www.w3.org/2000/svg">
<path d="M44.8706 14.3925C44.805 14.2444 43.2169 10.7212 39.6862 7.19062C34.9819 2.48625 29.04 0 22.5 0C15.96 0 10.0181 2.48625 5.31373 7.19062C1.78311 10.7212 0.187482 14.25 0.129357 14.3925C0.0440692 14.5843 0 14.7919 0 15.0019C0 15.2118 0.0440692 15.4194 0.129357 15.6112C0.194982 15.7594 1.78311 19.2806 5.31373 22.8113C10.0181 27.5138 15.96 30 22.5 30C29.04 30 34.9819 27.5138 39.6862 22.8113C43.2169 19.2806 44.805 15.7594 44.8706 15.6112C44.9559 15.4194 45 15.2118 45 15.0019C45 14.7919 44.9559 14.5843 44.8706 14.3925ZM22.5 27C16.7287 27 11.6869 24.9019 7.51311 20.7656C5.80057 19.0626 4.34358 17.1205 3.18748 15C4.34327 12.8793 5.80029 10.9372 7.51311 9.23438C11.6869 5.09812 16.7287 3 22.5 3C28.2712 3 33.3131 5.09812 37.4869 9.23438C39.2027 10.9368 40.6629 12.8788 41.8219 15C40.47 17.5238 34.5806 27 22.5 27ZM22.5 6C20.72 6 18.9799 6.52784 17.4999 7.51677C16.0198 8.50571 14.8663 9.91131 14.1851 11.5558C13.5039 13.2004 13.3256 15.01 13.6729 16.7558C14.0202 18.5016 14.8773 20.1053 16.136 21.364C17.3947 22.6226 18.9983 23.4798 20.7442 23.8271C22.49 24.1743 24.2996 23.9961 25.9441 23.3149C27.5887 22.6337 28.9943 21.4802 29.9832 20.0001C30.9721 18.5201 31.5 16.78 31.5 15C31.4975 12.6138 30.5485 10.3261 28.8612 8.63878C27.1739 6.95149 24.8862 6.00248 22.5 6ZM22.5 21C21.3133 21 20.1533 20.6481 19.1666 19.9888C18.1799 19.3295 17.4108 18.3925 16.9567 17.2961C16.5026 16.1997 16.3838 14.9933 16.6153 13.8295C16.8468 12.6656 17.4182 11.5965 18.2573 10.7574C19.0965 9.91824 20.1656 9.3468 21.3294 9.11529C22.4933 8.88378 23.6997 9.0026 24.7961 9.45672C25.8924 9.91085 26.8295 10.6799 27.4888 11.6666C28.1481 12.6533 28.5 13.8133 28.5 15C28.5 16.5913 27.8678 18.1174 26.7426 19.2426C25.6174 20.3679 24.0913 21 22.5 21Z" fill="white"/>
</svg>
